<?xml version="1.0" encoding="UTF-8" ?>
<!DOCTYPE svg PUBLIC "-//W3C//DTD SVG 1.1//EN" "http://www.w3.org/Graphics/SVG/1.1/DTD/svg11.dtd">
<svg width="512pt" height="512pt" viewBox="0 0 512 512" version="1.1" xmlns="http://www.w3.org/2000/svg">
<g id="#010101ff">
<path fill="#010101" stroke="#010101" stroke-width="0.09375" opacity="1.00" d=" M 8.69 0.00 L 209.61 0.00 C 213.70 0.75 216.70 3.71 219.64 6.40 C 282.51 59.51 345.39 112.62 408.26 165.72 C 411.75 168.49 416.11 171.25 416.66 176.11 C 416.55 204.75 416.59 233.43 416.62 262.09 C 454.37 263.98 489.62 288.96 504.36 323.68 C 508.80 333.73 511.09 344.60 512.00 355.52 L 512.00 365.29 C 510.68 381.14 505.84 396.74 497.22 410.16 C 480.00 437.72 449.19 456.52 416.61 458.14 C 416.55 472.78 416.69 487.42 416.54 502.06 C 416.42 507.01 412.29 510.97 407.62 512.00 L 9.28 512.00 C 4.57 511.24 0.76 507.46 0.00 502.74 L 0.00 8.90 C 0.99 4.54 4.40 1.16 8.69 0.00 M 21.38 21.38 C 21.25 177.75 21.41 334.13 21.30 490.50 C 37.85 490.83 54.43 490.58 70.99 490.64 C 179.00 490.72 287.01 490.55 395.01 490.72 C 395.54 479.44 395.11 468.12 395.23 456.82 C 370.76 452.57 348.19 438.86 332.78 419.44 C 319.79 403.26 311.83 382.86 311.48 362.04 C 311.01 342.55 317.15 323.09 328.17 307.07 C 343.54 284.38 368.18 268.13 395.23 263.40 C 395.27 238.40 395.23 213.40 395.25 188.40 C 335.85 188.38 276.45 188.41 217.05 188.39 C 213.55 188.34 210.02 188.62 206.53 188.22 C 201.29 187.49 197.20 182.39 197.61 177.11 C 197.57 125.19 197.65 73.27 197.57 21.35 C 138.84 21.33 80.11 21.29 21.38 21.38 M 218.95 33.78 C 219.00 78.20 218.95 122.62 218.96 167.04 C 271.53 166.95 324.10 167.12 376.68 166.97 C 324.09 122.60 271.55 78.16 218.95 33.78 M 396.49 284.68 C 374.50 288.23 354.23 301.68 343.05 321.03 C 332.93 338.33 330.39 359.58 334.97 378.99 C 338.56 394.12 346.98 408.09 358.86 418.15 C 387.22 442.46 432.72 443.20 462.05 420.17 C 475.20 410.01 484.59 395.17 488.44 379.02 C 492.10 363.40 491.24 346.66 485.44 331.66 C 479.09 314.90 466.32 300.75 450.41 292.57 C 433.99 283.96 414.67 281.55 396.49 284.68 Z" />
<path fill="#010101" stroke="#010101" stroke-width="0.09375" opacity="1.00" d=" M 94.49 249.69 C 95.95 249.30 97.48 249.30 98.99 249.27 C 155.01 249.29 211.03 249.27 267.04 249.28 C 272.57 248.90 277.67 253.55 278.09 259.01 C 278.85 265.15 273.25 271.01 267.09 270.61 C 211.07 270.62 155.05 270.60 99.04 270.62 C 94.66 271.00 90.01 269.01 88.02 264.94 C 84.78 259.29 88.13 251.24 94.49 249.69 Z" />
<path fill="#010101" stroke="#010101" stroke-width="0.09375" opacity="1.00" d=" M 401.10 325.90 C 401.11 320.27 406.32 315.39 411.94 315.65 C 417.45 315.63 422.43 320.46 422.36 326.02 C 422.50 333.84 422.33 341.67 422.43 349.50 C 430.64 349.45 438.85 349.42 447.06 349.52 C 453.25 349.60 458.17 356.11 456.90 362.11 C 456.07 366.76 451.85 370.64 447.08 370.75 C 438.85 370.87 430.61 370.77 422.39 370.81 C 422.43 378.53 422.38 386.26 422.38 393.98 C 422.54 399.16 418.30 403.98 413.16 404.54 C 407.46 405.43 401.43 400.88 401.15 395.04 C 400.92 386.97 401.13 378.89 401.05 370.81 C 392.68 370.73 384.30 370.96 375.93 370.72 C 369.73 370.36 365.11 363.66 366.68 357.72 C 367.64 352.99 372.19 349.41 377.00 349.50 C 385.01 349.43 393.03 349.49 401.05 349.47 C 401.11 341.61 400.98 333.75 401.10 325.90 Z" />
<path fill="#010101" stroke="#010101" stroke-width="0.09375" opacity="1.00" d=" M 96.10 325.12 C 153.07 324.87 210.06 325.05 267.04 325.03 C 273.00 324.62 278.40 329.99 278.10 335.93 C 278.15 341.73 272.81 346.70 267.04 346.36 C 210.69 346.37 154.34 346.37 97.99 346.36 C 92.56 346.78 87.41 342.37 86.85 336.98 C 85.93 331.37 90.44 325.60 96.10 325.12 Z" />
<path fill="#010101" stroke="#010101" stroke-width="0.09375" opacity="1.00" d=" M 93.40 401.52 C 96.78 400.23 100.47 400.81 103.99 400.73 C 158.33 400.74 212.68 400.71 267.02 400.75 C 271.92 400.48 276.71 403.98 277.78 408.80 C 279.72 415.42 273.81 422.60 266.97 422.06 C 210.31 422.11 153.66 422.08 97.00 422.07 C 92.43 421.95 88.26 418.54 87.10 414.14 C 85.66 409.13 88.57 403.40 93.40 401.52 Z" />
</g>
</svg>
