<?xml version="1.0" encoding="UTF-8" ?>
<!DOCTYPE svg PUBLIC "-//W3C//DTD SVG 1.1//EN" "http://www.w3.org/Graphics/SVG/1.1/DTD/svg11.dtd">
<svg width="512pt" height="512pt" viewBox="0 0 512 512" version="1.1" xmlns="http://www.w3.org/2000/svg">
<g id="#010101ff">
<path fill="#010101" stroke="#010101" stroke-width="0.09375" opacity="1.00" d=" M 274.33 0.00 L 281.66 0.00 C 313.66 0.60 345.79 6.77 374.98 20.15 C 407.50 34.80 436.00 58.16 456.92 87.05 C 486.00 127.03 500.94 177.23 497.83 226.62 C 495.98 251.80 489.53 276.42 481.00 300.11 C 467.01 338.06 447.42 373.89 423.49 406.47 C 401.68 435.90 376.24 463.06 345.98 483.92 C 327.03 496.97 305.92 507.29 283.29 511.96 C 285.25 501.67 289.76 492.07 295.13 483.16 C 301.86 472.07 309.56 461.62 317.13 451.11 C 329.57 433.88 341.67 416.31 351.42 397.39 C 359.70 381.31 366.41 364.39 370.83 346.85 C 380.03 311.73 379.75 274.82 374.83 239.06 C 372.31 221.84 368.37 204.68 361.28 188.71 C 355.87 176.70 348.48 165.33 338.33 156.79 C 327.64 147.65 313.95 142.46 300.04 141.04 C 289.75 140.05 279.15 139.53 269.09 142.35 C 258.72 145.16 249.05 150.11 240.01 155.84 C 228.33 163.46 217.59 172.76 209.33 184.06 C 244.90 200.77 280.51 217.38 316.06 234.13 C 215.26 266.08 114.46 298.03 13.63 329.92 C 13.69 230.59 13.61 131.27 13.67 31.95 C 42.45 58.96 71.10 86.10 99.85 113.15 C 114.00 78.31 139.58 48.31 171.40 28.35 C 202.07 9.18 238.38 0.49 274.33 0.00 Z" />
</g>
</svg>
