<?xml version="1.0" encoding="UTF-8" ?>
<!DOCTYPE svg PUBLIC "-//W3C//DTD SVG 1.1//EN" "http://www.w3.org/Graphics/SVG/1.1/DTD/svg11.dtd">
<svg width="192pt" height="192pt" viewBox="0 0 192 192" version="1.1" xmlns="http://www.w3.org/2000/svg">
<g id="#000000ff">
<path fill="#000000" stroke="#000000" stroke-width="0.09375" opacity="1.00" d=" M 26.18 9.10 C 29.62 7.68 33.41 8.04 37.04 7.99 C 67.36 8.02 97.68 7.99 128.00 8.00 C 128.00 13.33 128.00 18.67 128.00 24.00 C 96.00 24.00 64.00 24.00 32.00 24.00 C 32.00 61.33 32.00 98.67 32.00 136.00 C 26.67 136.00 21.33 136.00 16.00 136.00 C 16.01 98.62 15.97 61.24 16.02 23.86 C 15.95 17.47 20.20 11.34 26.18 9.10 Z" />
<path fill="#000000" stroke="#000000" stroke-width="0.09375" opacity="1.00" d=" M 61.26 40.25 C 64.15 39.85 67.08 40.01 69.99 39.99 C 97.35 40.02 124.71 39.96 152.07 40.02 C 160.57 39.81 168.19 47.45 167.98 55.95 C 168.04 91.64 167.97 127.33 168.01 163.02 C 167.99 166.91 168.30 171.01 166.55 174.61 C 164.08 180.21 158.17 184.05 152.04 183.98 C 122.67 184.01 93.30 184.02 63.93 183.98 C 55.46 184.17 47.84 176.61 48.02 168.14 C 47.98 130.72 47.99 93.31 48.02 55.89 C 47.89 48.37 53.83 41.37 61.26 40.25 M 64.00 56.00 C 64.00 93.33 64.00 130.67 64.00 168.00 C 93.33 168.00 122.67 168.00 152.00 168.00 C 152.00 130.67 152.00 93.33 152.00 56.00 C 122.67 56.00 93.33 56.00 64.00 56.00 Z" />
</g>
</svg>
