<?xml version="1.0" encoding="UTF-8" ?>
<!DOCTYPE svg PUBLIC "-//W3C//DTD SVG 1.1//EN" "http://www.w3.org/Graphics/SVG/1.1/DTD/svg11.dtd">
<svg width="512pt" height="512pt" viewBox="0 0 512 512" version="1.1" xmlns="http://www.w3.org/2000/svg">
<g id="#000000ff">
<path fill="#000000" stroke="#000000" stroke-width="0.09375" opacity="1.00" d=" M 42.66 42.66 C 56.89 42.65 71.11 42.65 85.34 42.66 C 85.35 56.89 85.35 71.11 85.34 85.34 C 71.11 85.35 56.89 85.35 42.66 85.34 C 42.65 71.11 42.65 56.89 42.66 42.66 Z" />
<path fill="#000000" stroke="#000000" stroke-width="0.09375" opacity="1.00" d=" M 149.36 85.34 C 149.33 71.11 149.33 56.88 149.36 42.65 C 256.02 42.66 362.68 42.64 469.34 42.66 C 469.35 56.89 469.35 71.11 469.34 85.34 C 362.68 85.36 256.02 85.34 149.36 85.34 Z" />
<path fill="#000000" stroke="#000000" stroke-width="0.09375" opacity="1.00" d=" M 42.66 170.66 C 56.89 170.65 71.11 170.65 85.34 170.66 C 85.35 184.89 85.35 199.11 85.34 213.34 C 71.11 213.35 56.89 213.35 42.66 213.34 C 42.65 199.11 42.65 184.89 42.66 170.66 Z" />
<path fill="#000000" stroke="#000000" stroke-width="0.09375" opacity="1.00" d=" M 149.36 213.34 C 149.33 199.11 149.33 184.88 149.36 170.66 C 256.02 170.66 362.68 170.64 469.34 170.66 C 469.35 184.89 469.35 199.11 469.34 213.34 C 362.68 213.36 256.02 213.34 149.36 213.34 Z" />
<path fill="#000000" stroke="#000000" stroke-width="0.09375" opacity="1.00" d=" M 42.66 298.66 C 56.89 298.65 71.11 298.65 85.34 298.66 C 85.35 312.89 85.35 327.11 85.34 341.34 C 71.11 341.35 56.89 341.35 42.66 341.34 C 42.65 327.11 42.65 312.89 42.66 298.66 Z" />
<path fill="#000000" stroke="#000000" stroke-width="0.09375" opacity="1.00" d=" M 149.36 341.34 C 149.33 327.11 149.33 312.88 149.36 298.65 C 256.02 298.66 362.68 298.64 469.34 298.66 C 469.35 312.89 469.35 327.11 469.34 341.34 C 362.68 341.36 256.02 341.34 149.36 341.34 Z" />
<path fill="#000000" stroke="#000000" stroke-width="0.09375" opacity="1.00" d=" M 42.66 426.66 C 56.89 426.65 71.11 426.65 85.34 426.66 C 85.35 440.89 85.35 455.11 85.34 469.34 C 71.11 469.35 56.89 469.35 42.66 469.34 C 42.65 455.11 42.65 440.89 42.66 426.66 Z" />
<path fill="#000000" stroke="#000000" stroke-width="0.09375" opacity="1.00" d=" M 149.36 469.35 C 149.33 455.12 149.33 440.88 149.36 426.66 C 256.02 426.66 362.68 426.64 469.34 426.66 C 469.35 440.89 469.35 455.11 469.34 469.34 C 362.68 469.36 256.02 469.34 149.36 469.35 Z" />
</g>
</svg>
