<?xml version="1.0" encoding="UTF-8" ?>
<!DOCTYPE svg PUBLIC "-//W3C//DTD SVG 1.1//EN" "http://www.w3.org/Graphics/SVG/1.1/DTD/svg11.dtd">
<svg width="200pt" height="200pt" viewBox="0 0 200 200" version="1.1" xmlns="http://www.w3.org/2000/svg">
<g id="#000000ff">
<path fill="#000000" stroke="#000000" stroke-width="0.09375" opacity="1.00" d=" M 79.16 10.22 C 91.41 9.73 103.69 10.12 115.96 10.00 C 126.32 9.81 136.69 13.69 144.28 20.77 C 152.64 28.40 157.49 39.63 157.38 50.94 C 157.41 76.31 157.38 101.68 157.40 127.05 C 157.44 133.05 157.35 139.12 155.99 144.99 C 152.62 160.62 142.31 174.57 128.39 182.44 C 113.15 191.27 93.78 192.36 77.61 185.43 C 57.25 177.02 42.90 156.05 42.65 134.00 C 42.50 107.01 42.64 80.01 42.58 53.02 C 42.43 46.31 43.49 39.51 46.43 33.43 C 52.28 20.67 65.16 11.48 79.16 10.22 M 80.42 21.54 C 66.10 22.59 54.02 35.62 54.03 49.97 C 53.96 77.31 54.01 104.66 54.01 132.00 C 53.70 147.77 62.17 163.30 75.61 171.56 C 88.26 179.61 104.94 180.79 118.61 174.62 C 134.49 167.77 145.62 151.32 145.94 134.01 C 146.08 106.32 145.97 78.63 145.99 50.94 C 146.10 42.59 142.45 34.30 136.18 28.80 C 130.71 23.87 123.35 21.24 116.01 21.39 C 104.15 21.49 92.27 21.20 80.42 21.54 Z" />
<path fill="#000000" stroke="#000000" stroke-width="0.09375" opacity="1.00" d=" M 97.36 44.49 C 101.33 42.66 106.54 45.65 106.72 50.06 C 106.84 55.70 106.93 61.36 106.67 66.99 C 106.10 71.93 99.49 74.37 95.75 71.15 C 91.78 68.00 93.56 62.40 93.19 58.06 C 93.32 53.40 91.84 46.67 97.36 44.49 Z" />
<path fill="#000000" stroke="#000000" stroke-width="0.09375" opacity="1.00" d=" M 79.64 91.31 C 77.20 88.79 80.88 84.08 83.87 86.13 C 89.36 89.70 94.58 93.68 100.00 97.37 C 105.17 93.80 110.23 90.07 115.43 86.54 C 117.45 84.74 121.01 86.26 121.00 88.99 C 121.27 91.26 118.96 92.37 117.46 93.53 C 112.13 97.13 107.01 101.05 101.62 104.55 C 99.62 105.86 97.59 104.11 95.99 103.01 C 90.60 99.03 84.91 95.44 79.64 91.31 Z" />
<path fill="#000000" stroke="#000000" stroke-width="0.09375" opacity="1.00" d=" M 79.07 116.01 C 78.88 113.44 82.02 111.18 84.24 112.82 C 89.65 116.39 94.84 120.29 100.18 123.98 C 105.54 120.31 110.71 116.37 116.16 112.84 C 119.39 110.55 123.19 115.85 120.12 118.24 C 113.85 122.80 107.59 127.46 101.01 131.56 C 100.51 131.52 99.50 131.43 99.00 131.39 C 93.44 127.95 88.31 123.87 82.87 120.23 C 81.43 119.06 79.16 118.16 79.07 116.01 Z" />
<path fill="#000000" stroke="#000000" stroke-width="0.09375" opacity="1.00" d=" M 78.87 141.98 C 78.68 139.42 81.94 137.17 84.11 138.86 C 89.48 142.46 94.68 146.32 100.00 149.99 C 105.42 146.29 110.62 142.28 116.15 138.75 C 119.32 136.77 122.82 141.74 120.05 144.13 C 114.79 148.21 109.17 151.81 103.82 155.75 C 102.22 156.90 100.06 158.48 98.14 157.02 C 92.72 153.44 87.52 149.51 82.14 145.86 C 80.84 144.81 78.86 143.93 78.87 141.98 Z" />
</g>
</svg>
