<?xml version="1.0" encoding="UTF-8" ?>
<!DOCTYPE svg PUBLIC "-//W3C//DTD SVG 1.1//EN" "http://www.w3.org/Graphics/SVG/1.1/DTD/svg11.dtd">
<svg width="626pt" height="626pt" viewBox="0 0 626 626" version="1.1" xmlns="http://www.w3.org/2000/svg">
<g id="#ffffffff">
</g>
<g id="#000000ff">
<path fill="#000000" stroke="#000000" stroke-width="0.09375" opacity="1.00" d=" M 489.49 0.00 L 495.51 0.00 C 510.18 0.97 524.88 5.40 536.90 14.04 C 547.09 21.04 555.13 30.52 563.99 39.02 C 577.37 52.62 591.11 65.88 604.34 79.62 C 617.56 93.52 625.37 112.31 626.00 131.47 L 626.00 136.54 C 625.11 152.18 619.99 167.81 610.41 180.32 C 606.38 185.91 601.30 190.60 596.49 195.49 C 589.55 202.39 582.69 209.35 575.72 216.21 C 574.78 215.52 573.84 214.83 572.96 214.07 C 520.96 162.06 468.94 110.06 416.93 58.05 C 414.46 55.55 411.72 53.28 409.80 50.30 C 418.35 41.69 426.97 33.14 435.53 24.53 C 439.26 20.91 443.12 17.38 447.40 14.41 C 459.60 5.57 474.54 0.95 489.49 0.00 Z" />
<path fill="#000000" stroke="#000000" stroke-width="0.09375" opacity="1.00" d=" M 380.62 79.58 C 381.61 78.87 383.07 79.09 383.74 80.15 C 391.46 88.48 399.77 96.23 407.78 104.27 C 409.11 105.08 408.84 106.80 407.70 107.64 C 308.84 206.46 209.99 305.28 111.14 404.11 C 107.20 407.83 103.80 412.48 98.54 414.42 C 93.22 416.54 86.70 416.40 81.76 413.35 C 74.59 409.67 70.41 400.85 72.02 392.96 C 72.80 387.51 76.65 383.18 80.50 379.54 C 180.57 279.59 280.48 179.46 380.62 79.58 Z" />
<path fill="#000000" stroke="#000000" stroke-width="0.09375" opacity="1.00" d=" M 436.43 134.37 C 437.36 134.16 438.13 134.41 438.75 135.13 C 456.15 152.79 473.53 170.48 491.33 187.74 C 491.91 188.56 491.86 189.35 491.19 190.12 C 390.66 290.59 290.19 391.14 189.64 491.59 C 181.49 500.05 169.80 505.52 157.91 504.61 C 143.03 503.45 128.91 493.45 123.96 479.18 C 119.15 467.95 121.20 454.71 127.58 444.54 C 130.73 440.06 134.40 435.99 138.43 432.30 C 207.93 362.79 277.39 293.26 346.94 223.80 C 376.74 193.96 406.48 164.04 436.43 134.37 Z" />
<path fill="#000000" stroke="#000000" stroke-width="0.09375" opacity="1.00" d=" M 518.39 218.35 C 519.07 217.83 519.80 217.39 520.59 217.04 C 528.64 225.79 537.63 233.61 545.79 242.24 C 547.01 243.13 547.28 245.01 545.99 245.98 C 446.32 345.66 346.63 445.30 246.96 544.98 C 243.12 548.96 238.77 553.19 233.03 553.97 C 225.59 555.53 217.56 551.78 213.46 545.51 C 208.11 538.18 209.43 527.09 215.88 520.84 C 316.71 420.00 417.56 319.18 518.39 218.35 Z" />
<path fill="#000000" stroke="#000000" stroke-width="0.09375" opacity="1.00" d=" M 39.54 467.76 C 42.88 457.04 44.25 445.78 48.17 435.24 C 49.63 438.49 52.71 440.40 55.32 442.63 C 63.29 448.82 72.87 452.83 82.85 454.27 C 83.06 458.53 82.15 462.75 82.25 467.01 C 82.29 493.32 97.18 518.85 119.67 532.36 C 133.38 540.81 149.85 545.06 165.93 543.36 C 168.05 543.18 170.17 542.96 172.28 542.78 C 173.87 550.73 175.87 558.82 180.23 565.76 C 182.77 570.42 186.40 574.35 189.99 578.22 C 180.03 581.37 169.71 583.07 159.69 586.00 C 108.27 598.82 56.86 611.69 5.45 624.58 C 3.89 624.87 2.31 625.05 0.74 625.26 C 1.18 619.41 3.42 613.94 4.55 608.23 C 6.09 600.41 8.75 592.88 10.32 585.07 C 11.57 578.60 13.69 572.34 15.15 565.93 C 17.30 555.80 20.48 545.93 22.47 535.77 C 25.58 525.28 27.62 514.52 30.68 504.01 C 33.30 491.84 36.83 479.91 39.54 467.76 Z" />
</g>
</svg>
