<?xml version="1.0" encoding="UTF-8" ?>
<!DOCTYPE svg PUBLIC "-//W3C//DTD SVG 1.1//EN" "http://www.w3.org/Graphics/SVG/1.1/DTD/svg11.dtd">
<svg width="512pt" height="512pt" viewBox="0 0 512 512" version="1.1" xmlns="http://www.w3.org/2000/svg">
<g id="#000000ff">
<path fill="#000000" stroke="#000000" stroke-width="0.09375" opacity="1.00" d=" M 0.00 0.00 L 128.00 0.00 C 128.01 69.33 127.99 138.66 128.01 207.99 C 213.34 208.01 298.66 208.00 383.99 207.99 C 384.01 138.66 384.00 69.33 384.00 0.00 L 416.00 0.00 C 447.99 32.04 480.09 63.97 512.00 96.08 L 512.00 512.00 L 0.00 512.00 L 0.00 0.00 M 64.01 256.00 C 64.00 330.67 64.00 405.33 64.00 479.99 C 192.00 480.00 320.00 480.00 447.99 480.00 C 448.00 405.33 448.00 330.67 447.99 256.00 C 320.00 256.00 192.00 256.00 64.01 256.00 Z" />
<path fill="#000000" stroke="#000000" stroke-width="0.09375" opacity="1.00" d=" M 288.01 32.00 C 309.34 32.00 330.66 32.00 351.99 32.00 C 352.00 80.00 352.00 128.00 351.99 175.99 C 330.66 176.00 309.33 176.00 288.01 175.99 C 288.00 128.00 288.00 80.00 288.01 32.00 Z" />
<path fill="#000000" stroke="#000000" stroke-width="0.09375" opacity="1.00" d=" M 96.00 288.01 C 202.67 287.99 309.33 288.00 415.99 288.00 C 416.00 298.67 416.00 309.33 416.00 319.99 C 309.33 320.01 202.67 320.00 96.00 319.99 C 96.00 309.33 96.00 298.67 96.00 288.01 Z" />
<path fill="#000000" stroke="#000000" stroke-width="0.09375" opacity="1.00" d=" M 96.01 352.00 C 202.67 352.00 309.33 351.99 416.00 352.01 C 416.00 362.67 416.00 373.33 415.99 383.99 C 309.33 384.00 202.67 384.00 96.01 384.00 C 95.99 373.33 96.00 362.67 96.01 352.00 Z" />
<path fill="#000000" stroke="#000000" stroke-width="0.09375" opacity="1.00" d=" M 96.01 416.01 C 202.67 415.99 309.33 416.00 415.99 416.00 C 416.00 426.67 416.00 437.33 415.99 448.00 C 309.33 448.00 202.67 448.01 96.00 447.99 C 96.00 437.33 95.99 426.67 96.01 416.01 Z" />
</g>
</svg>
