<?xml version="1.0" encoding="UTF-8" ?>
<!DOCTYPE svg PUBLIC "-//W3C//DTD SVG 1.1//EN" "http://www.w3.org/Graphics/SVG/1.1/DTD/svg11.dtd">
<svg width="128pt" height="128pt" viewBox="0 0 128 128" version="1.1" xmlns="http://www.w3.org/2000/svg">
<g id="#000000ff">
<path fill="#000000" stroke="#000000" stroke-width="0.09375" opacity="1.00" d=" M 37.85 10.76 C 48.76 6.29 61.52 6.71 72.12 11.86 C 86.02 18.40 96.07 32.60 97.13 47.99 C 98.10 59.36 93.98 70.78 86.69 79.45 C 97.83 90.50 108.79 101.73 120.03 112.67 C 117.86 115.35 115.25 117.62 112.85 120.08 C 101.59 108.87 90.41 97.58 79.11 86.41 C 69.94 92.99 58.22 96.08 47.04 94.17 C 33.03 92.00 20.55 82.43 14.47 69.67 C 10.32 61.12 9.15 51.15 11.27 41.88 C 14.33 27.99 24.66 16.03 37.85 10.76 M 45.52 13.64 C 34.90 15.80 25.38 22.75 20.18 32.26 C 13.55 44.13 13.77 59.52 20.79 71.17 C 25.40 78.97 32.95 84.93 41.57 87.69 C 56.77 92.78 74.97 87.52 84.49 74.47 C 92.29 64.21 94.21 50.00 89.88 37.93 C 86.91 29.51 80.85 22.23 73.07 17.84 C 64.82 13.10 54.81 11.72 45.52 13.64 Z" />
</g>
</svg>
