<?xml version="1.0" encoding="UTF-8" ?>
<!DOCTYPE svg PUBLIC "-//W3C//DTD SVG 1.1//EN" "http://www.w3.org/Graphics/SVG/1.1/DTD/svg11.dtd">
<svg width="512pt" height="512pt" viewBox="0 0 512 512" version="1.1" xmlns="http://www.w3.org/2000/svg">
<g id="#020202ff">
<path fill="#020202" stroke="#020202" stroke-width="0.09375" opacity="1.00" d=" M 193.10 25.96 C 193.18 15.00 202.96 5.34 213.92 5.35 C 241.28 5.29 268.64 5.36 296.01 5.32 C 300.24 5.35 304.61 5.00 308.68 6.44 C 317.26 9.25 323.49 17.95 323.17 27.01 C 323.17 40.36 323.28 53.72 323.11 67.06 C 330.88 70.53 338.87 73.48 346.71 76.76 C 355.18 68.23 363.72 59.76 372.20 51.24 C 374.87 48.56 377.49 45.67 380.93 43.94 C 386.77 40.81 394.19 40.80 400.00 44.01 C 404.00 46.16 406.96 49.68 410.16 52.81 C 429.15 71.83 448.17 90.82 467.17 109.83 C 471.20 113.80 473.67 119.38 473.59 125.07 C 473.58 130.68 470.91 136.04 466.96 139.94 C 457.81 149.14 448.58 158.25 439.47 167.49 C 443.91 175.24 446.94 183.66 450.15 191.97 C 463.79 192.08 477.44 191.87 491.08 192.06 C 501.79 192.56 510.98 202.26 510.90 212.98 C 510.95 242.33 510.93 271.69 510.91 301.05 C 511.02 311.81 501.80 321.68 491.00 322.03 C 476.67 322.25 462.34 322.09 448.01 322.11 C 444.75 330.77 441.49 339.46 437.34 347.75 C 445.87 356.20 454.31 364.74 462.84 373.19 C 466.48 376.56 469.28 380.97 470.10 385.91 C 471.42 392.74 468.58 399.88 463.65 404.62 C 443.13 425.12 422.63 445.63 402.11 466.12 C 397.57 470.70 390.92 473.31 384.47 472.35 C 380.25 471.73 376.26 469.80 373.12 466.93 C 364.15 458.21 355.53 449.13 346.46 440.52 C 337.91 445.01 329.02 448.83 320.00 452.25 C 319.98 464.86 320.09 477.47 319.96 490.08 C 319.07 499.76 309.25 506.66 299.95 506.64 C 270.63 506.68 241.31 506.66 211.99 506.65 C 201.33 506.74 191.59 497.68 191.01 487.04 C 190.75 474.74 191.05 462.44 190.88 450.15 C 181.67 447.05 172.53 443.55 164.24 438.42 C 155.22 447.34 146.40 456.46 137.26 465.26 C 129.65 472.34 116.75 471.94 109.45 464.61 C 90.53 445.83 71.75 426.90 52.87 408.09 C 48.83 403.81 43.78 400.04 41.80 394.27 C 38.99 386.91 40.98 378.11 46.57 372.59 C 55.54 363.54 64.62 354.61 73.56 345.53 C 69.43 337.29 66.16 328.65 62.92 320.03 C 50.61 319.95 38.29 320.09 25.98 319.96 C 14.99 319.92 5.26 310.03 5.34 299.05 C 5.32 269.70 5.31 240.34 5.35 210.99 C 5.32 202.92 10.37 195.18 17.70 191.85 C 21.21 190.12 25.17 189.80 29.02 189.82 C 41.38 189.91 53.74 189.82 66.11 189.86 C 69.24 181.52 72.80 173.34 76.75 165.35 C 67.32 155.72 57.63 146.35 48.25 136.69 C 40.84 129.12 40.87 115.88 48.42 108.42 C 69.18 87.52 90.06 66.75 110.88 45.91 C 115.75 40.87 123.17 38.31 130.08 39.93 C 134.46 40.81 138.36 43.28 141.42 46.48 C 150.83 55.86 160.19 65.29 169.63 74.65 C 177.37 71.29 185.17 68.05 193.06 65.04 C 193.10 52.01 192.99 38.99 193.10 25.96 M 232.56 46.93 C 232.45 58.97 232.64 71.02 232.48 83.06 C 232.35 92.31 225.15 100.86 216.03 102.51 C 202.51 105.40 189.84 111.15 177.61 117.46 C 173.86 119.38 170.23 121.89 165.92 122.31 C 159.34 123.19 152.76 120.34 147.98 115.94 C 139.76 107.96 131.91 99.61 123.56 91.77 C 113.36 102.23 102.90 112.42 92.64 122.82 C 91.15 123.68 92.95 124.77 93.49 125.50 C 101.00 133.00 108.51 140.50 116.01 148.01 C 120.96 152.86 123.47 160.14 122.12 166.98 C 121.42 171.31 118.74 174.90 116.61 178.61 C 109.89 190.33 104.26 202.81 101.44 216.07 C 99.79 225.18 91.25 232.35 82.00 232.48 C 70.32 232.65 58.62 232.44 46.93 232.56 C 46.92 247.84 46.92 263.11 46.93 278.39 C 55.27 278.40 63.60 278.37 71.93 278.39 C 76.98 278.46 82.29 277.82 87.03 279.99 C 93.39 282.51 98.12 288.39 99.34 295.11 C 102.60 311.15 109.33 326.32 117.92 340.20 C 122.70 348.37 119.87 359.05 113.45 365.49 C 106.25 372.69 99.06 379.91 91.82 387.08 C 102.30 397.94 113.04 408.54 123.80 419.12 C 131.01 411.90 138.20 404.66 145.46 397.48 C 151.92 391.18 162.71 389.64 170.43 394.52 C 184.86 403.36 200.74 409.65 217.07 414.00 C 224.02 415.61 229.67 421.25 231.67 428.04 C 232.75 431.60 232.51 435.36 232.54 439.03 C 232.56 447.70 232.51 456.37 232.54 465.05 C 248.17 465.07 263.81 465.06 279.45 465.05 C 279.49 454.40 279.37 443.75 279.49 433.10 C 279.73 424.57 285.80 416.47 294.10 414.23 C 310.91 409.83 327.02 402.95 342.03 394.24 C 349.23 389.78 359.43 390.38 365.55 396.43 C 373.07 404.06 380.70 411.58 388.25 419.18 C 398.93 408.51 409.65 397.89 420.24 387.14 C 412.63 379.60 405.08 372.02 397.52 364.45 C 391.22 357.97 389.58 347.19 394.51 339.44 C 403.32 325.21 408.87 309.27 413.13 293.17 C 415.30 284.84 423.37 278.70 431.91 278.45 C 442.96 278.27 454.01 278.46 465.05 278.37 C 465.06 263.09 465.07 247.81 465.05 232.53 C 453.70 232.52 442.36 232.55 431.01 232.53 C 422.13 232.73 413.41 226.61 411.06 217.95 C 406.97 203.43 401.24 189.34 393.84 176.18 C 392.36 173.56 390.70 170.98 389.93 168.04 C 388.09 161.64 389.65 154.24 394.43 149.51 C 403.07 140.98 411.59 132.34 420.22 123.80 C 409.62 113.06 399.02 102.30 388.16 91.82 C 380.32 99.75 372.37 107.59 364.52 115.52 C 358.28 123.08 346.73 126.07 338.01 121.08 C 326.66 114.42 314.56 108.94 301.89 105.31 C 297.04 103.87 291.71 103.46 287.45 100.48 C 281.69 96.72 278.32 89.86 278.38 83.04 C 278.38 71.00 278.39 58.97 278.39 46.93 C 263.11 46.92 247.84 46.92 232.56 46.93 Z" />
<path fill="#020202" stroke="#020202" stroke-width="0.09375" opacity="1.00" d=" M 240.51 140.74 C 265.18 137.44 290.88 142.22 312.55 154.50 C 334.36 166.67 352.08 186.03 362.21 208.87 C 373.07 232.94 375.17 260.79 368.22 286.25 C 360.35 315.72 340.25 341.62 313.78 356.77 C 291.72 369.61 265.32 374.72 240.05 371.13 C 214.46 367.70 190.25 355.22 172.39 336.60 C 154.96 318.64 143.52 294.92 140.59 270.05 C 137.24 243.41 143.59 215.67 158.27 193.18 C 176.37 164.88 207.16 145.08 240.51 140.74 M 241.49 182.75 C 226.40 185.73 212.33 193.53 201.81 204.75 C 188.60 218.64 181.00 237.77 181.37 256.96 C 181.47 268.75 184.47 280.52 190.06 290.91 C 199.13 308.09 215.20 321.43 233.76 327.21 C 248.67 331.98 265.10 331.75 279.87 326.57 C 304.61 318.05 324.21 295.93 329.20 270.18 C 332.86 252.13 329.42 232.75 319.84 217.02 C 312.67 205.17 302.10 195.37 289.67 189.22 C 274.93 181.79 257.67 179.58 241.49 182.75 Z" />
</g>
</svg>
