<?xml version="1.0" encoding="UTF-8" ?>
<!DOCTYPE svg PUBLIC "-//W3C//DTD SVG 1.1//EN" "http://www.w3.org/Graphics/SVG/1.1/DTD/svg11.dtd">
<svg width="800pt" height="800pt" viewBox="0 0 800 800" version="1.1" xmlns="http://www.w3.org/2000/svg">
<g id="#000000ff">
<path fill="#000000" stroke="#000000" stroke-width="0.09375" opacity="1.00" d=" M 295.87 286.83 C 330.63 209.07 365.15 131.19 400.00 53.47 C 434.85 131.19 469.36 209.07 504.13 286.83 C 588.87 295.78 673.62 304.69 758.36 313.69 C 695.09 370.77 631.74 427.77 568.46 484.86 C 586.13 568.24 603.82 651.61 621.48 734.99 C 547.64 692.43 473.83 649.82 400.00 607.24 C 326.17 649.81 252.36 692.43 178.52 734.99 C 196.18 651.61 213.87 568.24 231.54 484.86 C 168.27 427.77 104.91 370.79 41.66 313.69 C 126.39 304.69 211.13 295.79 295.87 286.83 M 398.49 179.39 C 375.63 230.79 352.73 282.17 329.79 333.52 C 272.62 339.50 215.47 345.70 158.29 351.56 C 201.05 390.00 243.71 428.54 286.45 467.00 C 274.53 523.21 262.59 579.40 250.71 635.61 C 300.49 606.94 350.23 578.21 400.00 549.52 C 449.77 578.20 499.51 606.94 549.29 635.61 C 537.40 579.41 525.47 523.21 513.55 467.01 C 556.17 428.58 598.84 390.20 641.43 351.74 C 584.39 345.41 527.28 339.63 470.21 333.52 C 446.89 281.40 423.74 229.20 400.42 177.07 C 399.03 176.75 399.07 178.59 398.49 179.39 Z" />
</g>
</svg>
