<?xml version="1.0" encoding="UTF-8" ?>
<!DOCTYPE svg PUBLIC "-//W3C//DTD SVG 1.1//EN" "http://www.w3.org/Graphics/SVG/1.1/DTD/svg11.dtd">
<svg width="800pt" height="800pt" viewBox="0 0 800 800" version="1.1" xmlns="http://www.w3.org/2000/svg">
<g id="#ffffffff">
</g>
<g id="#fff200ff">
<path fill="#fff200" stroke="#fff200" stroke-width="0.09375" opacity="1.00" d=" M 399.49 54.32 C 399.74 54.30 400.24 54.25 400.49 54.23 C 434.98 131.79 469.57 209.31 504.16 286.82 C 577.11 294.50 650.06 302.23 723.01 309.91 C 734.72 311.29 746.54 312.12 758.19 313.84 C 695.04 370.96 631.60 427.78 568.50 484.95 C 586.10 568.20 603.90 651.42 621.37 734.70 C 611.80 729.78 602.67 724.01 593.27 718.76 C 528.86 681.59 464.44 644.45 400.03 607.27 C 332.40 646.23 264.81 685.27 197.19 724.26 C 190.98 727.69 185.01 731.58 178.65 734.72 C 196.00 651.44 214.04 568.29 231.39 485.01 C 225.21 478.77 218.35 473.17 211.91 467.18 C 155.61 416.42 99.27 365.70 42.99 314.93 C 42.76 314.58 42.29 313.87 42.06 313.52 C 126.68 304.78 211.26 295.68 295.86 286.82 C 330.41 209.32 364.99 131.83 399.49 54.32 Z" />
</g>
</svg>
