<?xml version="1.0" encoding="UTF-8" ?>
<!DOCTYPE svg PUBLIC "-//W3C//DTD SVG 1.1//EN" "http://www.w3.org/Graphics/SVG/1.1/DTD/svg11.dtd">
<svg width="512pt" height="512pt" viewBox="0 0 512 512" version="1.1" xmlns="http://www.w3.org/2000/svg">
<g id="#000000ff">
<path fill="#000000" stroke="#000000" stroke-width="0.09375" opacity="1.00" d=" M 55.00 233.01 C 117.99 169.55 181.00 106.10 244.01 42.66 C 297.79 42.66 351.56 42.65 405.34 42.66 C 405.35 56.89 405.35 71.11 405.34 85.34 C 370.00 85.36 334.67 85.33 299.33 85.35 C 234.07 151.07 168.78 216.76 103.52 282.48 C 95.35 290.86 89.12 301.33 87.07 312.96 C 86.71 315.07 86.38 317.19 85.99 319.31 C 75.43 308.76 64.83 298.24 54.34 287.63 C 46.62 279.90 42.16 268.88 43.14 257.92 C 43.72 248.45 48.33 239.62 55.00 233.01 Z" />
<path fill="#000000" stroke="#000000" stroke-width="0.09375" opacity="1.00" d=" M 119.49 296.50 C 182.34 233.22 245.16 169.93 308.01 106.66 C 361.79 106.66 415.56 106.65 469.34 106.66 C 469.07 160.28 468.98 213.90 468.58 267.51 C 405.39 330.68 342.44 394.10 279.30 457.32 C 271.67 465.04 260.84 469.71 249.91 468.91 C 240.40 468.48 231.42 464.01 224.73 457.35 C 190.56 423.50 156.49 389.55 122.35 355.67 C 118.09 351.51 113.86 347.14 111.17 341.77 C 105.61 331.16 105.71 317.85 111.34 307.29 C 113.36 303.22 116.39 299.78 119.49 296.50 M 400.17 143.36 C 386.95 146.03 377.10 159.58 378.92 173.00 C 380.17 187.47 394.56 199.07 408.98 197.08 C 423.48 195.84 435.11 181.40 433.07 166.95 C 431.76 151.43 415.33 139.58 400.17 143.36 Z" />
</g>
</svg>
