<?xml version="1.0" encoding="UTF-8" ?>
<!DOCTYPE svg PUBLIC "-//W3C//DTD SVG 1.1//EN" "http://www.w3.org/Graphics/SVG/1.1/DTD/svg11.dtd">
<svg width="198pt" height="235pt" viewBox="0 0 198 235" version="1.1" xmlns="http://www.w3.org/2000/svg">
<g id="#000000f1">
<path fill="#000000" stroke="#000000" stroke-width="0.09375" opacity="0.95" d=" M 9.26 9.35 C 12.38 8.35 15.72 8.83 18.94 8.75 C 73.63 8.76 128.33 8.76 183.02 8.74 C 188.14 8.32 193.10 12.79 192.87 17.99 C 193.28 23.34 188.31 28.03 183.03 27.67 C 126.34 27.69 69.65 27.71 12.96 27.66 C 8.08 28.02 3.52 23.92 3.31 19.05 C 2.84 14.94 5.46 10.86 9.26 9.35 Z" />
<path fill="#000000" stroke="#000000" stroke-width="0.09375" opacity="0.95" d=" M 10.43 48.59 C 11.60 48.40 12.78 48.30 13.97 48.31 C 70.66 48.39 127.35 48.25 184.03 48.37 C 190.32 48.35 194.69 55.53 192.32 61.24 C 190.89 64.98 186.97 67.47 182.98 67.33 C 126.33 67.33 69.67 67.33 13.01 67.33 C 7.92 67.61 3.17 63.17 3.30 58.04 C 3.04 53.73 6.21 49.51 10.43 48.59 Z" />
<path fill="#000000" stroke="#000000" stroke-width="0.09375" opacity="0.95" d=" M 10.17 88.24 C 11.44 87.95 12.74 87.80 14.05 87.80 C 70.38 87.83 126.72 87.77 183.05 87.83 C 188.07 87.60 193.06 91.84 192.86 97.02 C 193.34 102.36 188.35 107.28 183.02 106.74 C 126.00 106.70 68.97 106.76 11.95 106.71 C 6.33 106.76 2.14 100.66 3.48 95.36 C 4.17 91.99 6.86 89.15 10.17 88.24 Z" />
<path fill="#000000" stroke="#000000" stroke-width="0.09375" opacity="0.95" d=" M 9.49 126.61 C 12.93 125.77 16.52 126.24 20.03 126.15 C 72.70 126.15 125.37 126.18 178.04 126.14 C 181.91 126.28 186.48 125.35 189.58 128.30 C 194.00 131.72 194.01 139.22 189.64 142.69 C 186.86 145.55 182.60 144.66 179.03 144.80 C 123.33 144.76 67.63 144.78 11.93 144.79 C 7.92 145.01 4.50 141.65 3.55 137.95 C 2.30 133.35 4.99 128.19 9.49 126.61 Z" />
<path fill="#000000" stroke="#000000" stroke-width="0.09375" opacity="0.95" d=" M 8.43 166.67 C 11.73 165.10 15.50 165.74 19.03 165.63 C 73.68 165.66 128.33 165.63 182.98 165.64 C 188.13 165.30 193.17 169.71 192.87 174.99 C 193.23 180.30 188.30 185.03 183.03 184.60 C 126.32 184.58 69.61 184.58 12.90 184.60 C 8.06 184.92 3.54 180.86 3.33 176.02 C 2.86 172.22 5.06 168.40 8.43 166.67 Z" />
<path fill="#000000" stroke="#000000" stroke-width="0.09375" opacity="0.95" d=" M 11.26 205.39 C 67.49 205.01 123.74 205.38 179.98 205.20 C 183.26 205.18 186.97 205.04 189.57 207.42 C 193.73 210.68 194.05 217.60 190.27 221.27 C 188.23 223.60 185.03 224.29 182.05 224.25 C 125.70 224.21 69.35 224.28 13.00 224.22 C 7.95 224.50 3.24 220.15 3.30 215.07 C 2.97 210.43 6.63 205.92 11.26 205.39 Z" />
</g>
</svg>
