<?xml version="1.0" encoding="UTF-8" ?>
<!DOCTYPE svg PUBLIC "-//W3C//DTD SVG 1.1//EN" "http://www.w3.org/Graphics/SVG/1.1/DTD/svg11.dtd">
<svg width="256pt" height="256pt" viewBox="0 0 256 256" version="1.1" xmlns="http://www.w3.org/2000/svg">
<g id="#333333ff">
<path fill="#333333" stroke="#333333" stroke-width="0.09375" opacity="1.00" d=" M 101.84 0.00 L 154.11 0.00 C 160.55 0.94 167.02 3.58 171.23 8.73 C 176.15 14.44 177.50 22.20 177.65 29.52 C 189.78 29.54 201.91 29.54 214.04 29.51 C 217.18 29.53 220.64 29.80 223.04 32.09 C 225.28 33.86 225.96 36.72 226.59 39.36 C 229.83 39.37 233.07 39.37 236.31 39.39 C 236.31 45.94 236.32 52.50 236.31 59.05 C 164.10 59.07 91.90 59.07 19.69 59.05 C 19.68 52.50 19.69 45.94 19.69 39.39 C 22.93 39.37 26.16 39.37 29.40 39.36 C 29.93 34.36 33.80 29.66 39.11 29.65 C 52.18 29.34 65.27 29.64 78.35 29.52 C 78.51 22.45 79.73 14.98 84.29 9.32 C 88.47 3.83 95.17 0.98 101.84 0.00 M 100.71 21.70 C 98.88 23.85 99.17 26.89 98.85 29.53 C 118.28 29.53 137.72 29.53 157.15 29.53 C 156.83 26.90 157.12 23.88 155.32 21.72 C 152.89 20.13 149.81 20.23 147.02 20.10 C 134.35 20.08 121.69 20.08 109.02 20.10 C 106.23 20.23 103.15 20.13 100.71 21.70 Z" />
<path fill="#333333" stroke="#333333" stroke-width="0.09375" opacity="1.00" d=" M 39.38 68.95 C 98.46 68.93 157.54 68.93 216.62 68.95 C 216.62 121.00 216.64 173.05 216.62 225.10 C 216.64 231.99 214.70 239.00 210.38 244.46 C 205.13 251.39 196.71 255.53 188.08 256.00 L 68.55 256.00 C 58.18 255.76 48.10 249.90 43.18 240.72 C 40.08 235.36 39.26 229.06 39.36 222.97 C 39.39 171.63 39.36 120.29 39.38 68.95 M 78.79 98.48 C 78.78 137.86 78.79 177.23 78.78 216.61 C 85.35 216.63 91.91 216.63 98.47 216.61 C 98.46 177.23 98.47 137.85 98.46 98.48 C 91.90 98.47 85.35 98.46 78.79 98.48 M 118.16 98.48 C 118.16 137.86 118.15 177.24 118.17 216.63 C 124.72 216.62 131.28 216.62 137.83 216.63 C 137.85 177.24 137.84 137.86 137.84 98.48 C 131.28 98.47 124.72 98.47 118.16 98.48 M 157.54 98.48 C 157.53 137.85 157.54 177.23 157.53 216.61 C 164.10 216.61 170.67 216.67 177.23 216.58 C 177.19 177.21 177.23 137.84 177.21 98.48 C 170.65 98.46 164.09 98.47 157.54 98.48 Z" />
</g>
</svg>
